#!OML:ASF F:\twosubjects\two\Thursday\Session 1\Rory.ASF
:FULLY-SPECIFIED
:DEGREES
604
root 11.2806 18.908 10.0258 -148.021 -82.9458 150.093
lowerback -6.7379 -2.11767 -5.15116
upperback 0.0274689 -2.37757 -2.51861
thorax 3.91133 -1.27944 0.0359138
lowerneck -0.861494 -11.6322 -15.4794
upperneck 7.17635 -17.3724 19.4179
head 5.3893 -8.54832 7.36297
rclavicle -3.81791e-014 -8.74653e-015
rhumerus 11.0232 11.4619 -58.0191
rradius 134.147
rwrist 13.6217
rhand -37.0755 32.1759
rfingers 7.12502
rthumb -10.1475 2.44062
lclavicle -3.81791e-014 -8.74653e-015
lhumerus -40.5874 -7.87986 83.7532
lradius 118.737
lwrist -18.0917
lhand -19.2301 46.9874
lfingers 7.12502
lthumb 7.08304 76.8488
rfemur 0.0583454 9.19083 12.3951
rtibia 9.19814
rfoot -7.54851 -8.63915
rtoes -12.983
lfemur 1.55976 -7.18931 -19.4498
ltibia 7.84428
lfoot -11.1623 12.7544
ltoes 14.9502
605
root 11.2857 18.9073 10.0286 -146.881 -83.0604 148.984
lowerback -6.80281 -2.15637 -5.1594
upperback 0.0769674 -2.42011 -2.57879
thorax 3.99892 -1.30259 -0.0305961
lowerneck -0.889875 -11.7371 -15.1654
upperneck 6.73226 -17.4137 19.2244
head 5.22125 -8.56981 7.24722
rclavicle 4.03719e-014 9.54166e-015
rhumerus 11.4528 10.8679 -57.5887
rradius 134.074
rwrist 13.296
rhand -37.408 32.6783
rfingers 7.12502
rthumb -10.4682 2.95896
lclavicle 4.03719e-014 9.54166e-015
lhumerus -40.4677 -7.93335 83.6011
lradius 118.715
lwrist -18.0425
lhand -19.0548 46.2737
lfingers 7.12502
lthumb 7.25221 76.1295
rfemur -0.02276 9.02957 12.3305
rtibia 9.29892
rfoot -7.54894 -8.68179
rtoes -13.4851
lfemur 1.58608 -7.35893 -19.5092
ltibia 7.62605
lfoot -11.0293 12.7602
ltoes 15.6202
606
root 11.2894 18.9083 10.0292 -145.02 -83.0205 147.185
lowerback -6.92394 -2.1935 -5.39758
upperback 0.110337 -2.44004 -2.6292
thorax 4.11078 -1.3199 0.0409436
lowerneck -0.90712 -11.8863 -15.2428
upperneck 6.34642 -17.5538 19.2884
head 5.14762 -8.64241 7.26173
rclavicle 2.16178e-015 1.59028e-015
rhumerus 11.8882 10.4194 -57.3142
rradius 133.99
rwrist 13.187
rhand -37.4064 33.9678
rfingers 7.12502
rthumb -10.4667 4.24835
lclavicle 2.16178e-015 1.59028e-015
lhumerus -40.3883 -7.93385 83.5158
lradius 118.76
lwrist -17.9894
lhand -18.7901 46.0791
lfingers 7.12502
lthumb 7.50776 75.9259
rfemur -0.170934 8.94255 12.0813
rtibia 9.41986
rfoot -7.64776 -8.68375
rtoes -14.1052
lfemur 1.59825 -7.44779 -19.7471
ltibia 7.40799
lfoot -10.8458 12.7383
ltoes 15.698
607
root 11.2902 18.9083 10.0319 -141.9 -82.8655 144.102
lowerback -7.03127 -2.24698 -5.85701
upperback 0.12014 -2.46598 -2.73099
thorax 4.19815 -1.34506 0.182088
lowerneck -0.845813 -11.9873 -15.4132
upperneck 6.02689 -17.6516 19.3914
head 5.08534 -8.69931 7.31354
rclavicle 1.11382e-014 -1.66979e-014
rhumerus 12.383 10.0019 -57.0153
rradius 133.996
rwrist 13.2529
rhand -37.1151 34.1996
rfingers 7.12502
rthumb -10.1857 4.46617
lclavicle 1.11382e-014 -1.66979e-014
lhumerus -40.382 -7.96112 83.4734
lradius 118.795
lwrist -17.9873
lhand -18.7242 46.1081
lfingers 7.12502
lthumb 7.5714 75.9526
rfemur -0.251628 8.84431 11.6045
rtibia 9.48659
rfoot -7.76024 -8.61487
rtoes -14.2926
lfemur 1.57081 -7.54835 -20.1925
ltibia 7.3055
lfoot -10.7887 12.7077
ltoes 15.4133
608
root 11.2922 18.9057 10.0371 -139.67 -82.75 141.819
lowerback -7.00299 -2.26417 -6.13589
upperback 0.134859 -2.46786 -2.83792
thorax 4.2052 -1.35301 0.225918
lowerneck -0.858673 -12.0649 -15.5485
upperneck 5.86135 -17.7411 19.5152
head 5.07949 -8.74497 7.36159
rclavicle 3.85891e-014 4.77083e-015
rhumerus 12.9177 9.5099 -56.6365
rradius 133.945
rwrist 13.2111
rhand -36.7586 33.7173
rfingers 7.12502
rthumb -9.84174 3.96731
lclavicle 3.85891e-014 4.77083e-015
lhumerus -40.3964 -8.06265 83.4558
lradius 118.822
lwrist -17.9486
lhand -18.9339 46.2882
lfingers 7.12502
lthumb 7.36892 76.1399
rfemur -0.205325 8.7698 11.2575
rtibia 9.50385
rfoot -7.69743 -8.54296
rtoes -14.1325
lfemur 1.59371 -7.63849 -20.5407
ltibia 7.29747
lfoot -10.6659 12.7524
ltoes 14.1722
609
root 11.2969 18.9042 10.039 -141.77 -82.8973 143.843
lowerback -6.87442 -2.21505 -5.79536
upperback 0.150491 -2.43842 -2.78499
thorax 4.13517 -1.32927 0.100704
lowerneck -0.890351 -12.1498 -15.4796
upperneck 5.63983 -17.825 19.5508
head 5.03151 -8.78618 7.3507
rclavicle 2.59538e-014 1.19271e-014
rhumerus 13.3099 9.08812 -56.3622
rradius 133.751
rwrist 13.1619
rhand -36.0453 34.2089
rfingers 7.12502
rthumb -9.15353 4.4276
lclavicle 2.59538e-014 1.19271e-014
lhumerus -40.4404 -8.08144 83.4716
lradius 118.854
lwrist -17.9269
lhand -19.0432 46.3711
lfingers 7.12502
lthumb 7.26347 76.2265
rfemur -0.064931 8.84196 11.5971
rtibia 9.36883
rfoot -7.54475 -8.51721
rtoes -14.2285
lfemur 1.58138 -7.59103 -20.2335
ltibia 7.50137
lfoot -10.5054 12.7868
ltoes 12.6669
610
root 11.3014 18.9014 10.0387 -145.458 -83.0732 147.446
lowerback -6.73378 -2.13816 -5.29983
upperback 0.173468 -2.38323 -2.71068
thorax 4.05958 -1.28942 -0.0855816
lowerneck -0.648835 -12.207 -15.2818
upperneck 5.01894 -17.8376 19.5695
head 4.79129 -8.81453 7.34828
rclavicle 1.02871e-014 -3.49861e-014
rhumerus 13.7154 8.61365 -56.1612
rradius 133.561
rwrist 13.1464
rhand -35.2737 34.641
rfingers 7.12502
rthumb -8.40891 4.82839
lclavicle 1.02871e-014 -3.49861e-014
lhumerus -40.4483 -8.11123 83.4297
lradius 118.827
lwrist -17.9039
lhand -19.091 46.1318
lfingers 7.12502
lthumb 7.21735 75.9887
rfemur 0.219678 8.98919 12.1251
rtibia 8.96665
rfoot -7.37156 -8.43494
rtoes -14.0541
lfemur 1.43983 -7.46971 -19.7181
ltibia 8.00962
lfoot -10.6819 12.8025
ltoes 11.9285
611
root 11.3034 18.8972 10.0407 -146.358 -83.0859 148.269
lowerback -6.64816 -2.09077 -5.16797
upperback 0.186523 -2.3352 -2.73165
thorax 4.01672 -1.26216 -0.172205
lowerneck -0.232479 -12.2109 -15.2575
upperneck 4.26316 -17.7758 19.6526
head 4.49151 -8.82067 7.4174
rclavicle 9.77772e-015 -2.62396e-014
rhumerus 14.1042 8.08806 -55.9712
rradius 133.413
rwrist 13.1716
rhand -35.6585 33.5201
rfingers 7.12502
rthumb -8.78022 3.72274
lclavicle 9.77772e-015 -2.62396e-014
lhumerus -40.4182 -8.21482 83.4033
lradius 118.759
lwrist -17.9314
lhand -19.2669 45.9732
lfingers 7.12502
lthumb 7.04752 75.8359
rfemur 0.518498 9.06949 12.2098
rtibia 8.52412
rfoot -7.20491 -8.44564
rtoes -13.9168
lfemur 1.28694 -7.42232 -19.6321
ltibia 8.51633
lfoot -11.0626 12.7841
ltoes 11.5336
612
root 11.3047 18.8956 10.0422 -147.176 -83.1427 149.03
lowerback -6.57358 -2.06356 -5.05977
upperback 0.191061 -2.31221 -2.70349
thorax 3.97534 -1.24767 -0.197733
lowerneck 0.0469087 -12.1661 -15.3714
upperneck 3.78475 -17.675 19.7543
head 4.30558 -8.79583 7.50581
rclavicle 3.63962e-014 3.81667e-014
rhumerus 14.481 7.65225 -55.7122
rradius 133.252
rwrist 13.035
rhand -36.0784 32.5488
rfingers 7.12502
rthumb -9.18548 2.76885
lclavicle 3.63962e-014 3.81667e-014
lhumerus -40.4073 -8.27734 83.443
lradius 118.71
lwrist -18.0176
lhand -19.2441 45.9005
lfingers 7.12502
lthumb 7.0695 75.7625
rfemur 0.705241 9.09331 12.3302
rtibia 8.2717
rfoot -7.07478 -8.56073
rtoes -13.8525
lfemur 1.21974 -7.40761 -19.5198
ltibia 8.80113
lfoot -11.3835 12.7327
ltoes 11.6263
